<mxfile host="www.draw.io" modified="2020-03-24T17:13:37.585Z" agent="Mozilla/5.0 (Windows NT 10.0; Win64; x64) AppleWebKit/537.36 (KHTML, like Gecko) Chrome/80.0.3987.149 Safari/537.36" etag="x7qitsMkl-7ucOg2GNUo" version="12.8.8" type="github">
  <diagram id="mjckeQMkFdW815SY2dnk" name="Page-1">
    <mxGraphModel dx="700" dy="784" grid="1" gridSize="10" guides="1" tooltips="1" connect="1" arrows="1" fold="1" page="1" pageScale="1" pageWidth="827" pageHeight="1169" math="0" shadow="0">
      <root>
        <mxCell id="0" />
        <mxCell id="1" parent="0" />
        <mxCell id="aU0X5GYW9RGECIyZWCJw-1" value="" style="rounded=1;whiteSpace=wrap;html=1;" vertex="1" parent="1">
          <mxGeometry x="75" y="260" width="120" height="160" as="geometry" />
        </mxCell>
        <mxCell id="aU0X5GYW9RGECIyZWCJw-2" value="&lt;font style=&quot;font-size: 14px&quot;&gt;Ufficio direttore&lt;/font&gt;" style="text;html=1;strokeColor=none;fillColor=none;align=center;verticalAlign=middle;whiteSpace=wrap;rounded=0;" vertex="1" parent="1">
          <mxGeometry x="75" y="230" width="120" height="20" as="geometry" />
        </mxCell>
        <mxCell id="aU0X5GYW9RGECIyZWCJw-3" value="PC1" style="text;html=1;strokeColor=none;fillColor=none;align=center;verticalAlign=middle;whiteSpace=wrap;rounded=0;" vertex="1" parent="1">
          <mxGeometry x="115" y="290" width="40" height="20" as="geometry" />
        </mxCell>
        <mxCell id="aU0X5GYW9RGECIyZWCJw-5" value="PC2" style="text;html=1;strokeColor=none;fillColor=none;align=center;verticalAlign=middle;whiteSpace=wrap;rounded=0;" vertex="1" parent="1">
          <mxGeometry x="115" y="370" width="40" height="20" as="geometry" />
        </mxCell>
        <mxCell id="aU0X5GYW9RGECIyZWCJw-7" value="" style="rounded=1;whiteSpace=wrap;html=1;" vertex="1" parent="1">
          <mxGeometry x="75" y="690" width="120" height="160" as="geometry" />
        </mxCell>
        <mxCell id="aU0X5GYW9RGECIyZWCJw-8" value="&lt;font style=&quot;font-size: 14px&quot;&gt;Ufficio redattori&lt;/font&gt;" style="text;html=1;strokeColor=none;fillColor=none;align=center;verticalAlign=middle;whiteSpace=wrap;rounded=0;" vertex="1" parent="1">
          <mxGeometry x="75" y="660" width="120" height="20" as="geometry" />
        </mxCell>
        <mxCell id="aU0X5GYW9RGECIyZWCJw-9" value="PC5" style="text;html=1;strokeColor=none;fillColor=none;align=center;verticalAlign=middle;whiteSpace=wrap;rounded=0;" vertex="1" parent="1">
          <mxGeometry x="115" y="720" width="40" height="20" as="geometry" />
        </mxCell>
        <mxCell id="aU0X5GYW9RGECIyZWCJw-10" value="PC6" style="text;html=1;strokeColor=none;fillColor=none;align=center;verticalAlign=middle;whiteSpace=wrap;rounded=0;" vertex="1" parent="1">
          <mxGeometry x="115" y="800" width="40" height="20" as="geometry" />
        </mxCell>
        <mxCell id="aU0X5GYW9RGECIyZWCJw-11" value="" style="rounded=1;whiteSpace=wrap;html=1;" vertex="1" parent="1">
          <mxGeometry x="75" y="470" width="120" height="160" as="geometry" />
        </mxCell>
        <mxCell id="aU0X5GYW9RGECIyZWCJw-12" value="&lt;font style=&quot;font-size: 14px&quot;&gt;Ufficio amministrativo&lt;/font&gt;" style="text;html=1;strokeColor=none;fillColor=none;align=center;verticalAlign=middle;whiteSpace=wrap;rounded=0;" vertex="1" parent="1">
          <mxGeometry x="60" y="440" width="150" height="20" as="geometry" />
        </mxCell>
        <mxCell id="aU0X5GYW9RGECIyZWCJw-13" value="PC3" style="text;html=1;strokeColor=none;fillColor=none;align=center;verticalAlign=middle;whiteSpace=wrap;rounded=0;" vertex="1" parent="1">
          <mxGeometry x="115" y="500" width="40" height="20" as="geometry" />
        </mxCell>
        <mxCell id="aU0X5GYW9RGECIyZWCJw-14" value="PC4" style="text;html=1;strokeColor=none;fillColor=none;align=center;verticalAlign=middle;whiteSpace=wrap;rounded=0;" vertex="1" parent="1">
          <mxGeometry x="75" y="580" width="40" height="20" as="geometry" />
        </mxCell>
        <mxCell id="aU0X5GYW9RGECIyZWCJw-15" value="" style="rounded=1;whiteSpace=wrap;html=1;" vertex="1" parent="1">
          <mxGeometry x="655" y="260" width="120" height="160" as="geometry" />
        </mxCell>
        <mxCell id="aU0X5GYW9RGECIyZWCJw-16" value="&lt;font style=&quot;font-size: 14px&quot;&gt;Stanza server&lt;/font&gt;" style="text;html=1;strokeColor=none;fillColor=none;align=center;verticalAlign=middle;whiteSpace=wrap;rounded=0;" vertex="1" parent="1">
          <mxGeometry x="655" y="230" width="120" height="20" as="geometry" />
        </mxCell>
        <mxCell id="aU0X5GYW9RGECIyZWCJw-17" value="S1" style="text;html=1;strokeColor=none;fillColor=none;align=center;verticalAlign=middle;whiteSpace=wrap;rounded=0;" vertex="1" parent="1">
          <mxGeometry x="695" y="290" width="40" height="20" as="geometry" />
        </mxCell>
        <mxCell id="aU0X5GYW9RGECIyZWCJw-24" value="" style="rounded=1;whiteSpace=wrap;html=1;" vertex="1" parent="1">
          <mxGeometry x="630" y="690" width="160" height="160" as="geometry" />
        </mxCell>
        <mxCell id="aU0X5GYW9RGECIyZWCJw-25" value="&lt;font style=&quot;font-size: 14px&quot;&gt;Ufficio programmatori&lt;/font&gt;" style="text;html=1;strokeColor=none;fillColor=none;align=center;verticalAlign=middle;whiteSpace=wrap;rounded=0;" vertex="1" parent="1">
          <mxGeometry x="640" y="660" width="150" height="20" as="geometry" />
        </mxCell>
        <mxCell id="aU0X5GYW9RGECIyZWCJw-26" value="PC12" style="text;html=1;strokeColor=none;fillColor=none;align=center;verticalAlign=middle;whiteSpace=wrap;rounded=0;" vertex="1" parent="1">
          <mxGeometry x="630" y="710" width="40" height="20" as="geometry" />
        </mxCell>
        <mxCell id="aU0X5GYW9RGECIyZWCJw-27" value="PC13" style="text;html=1;strokeColor=none;fillColor=none;align=center;verticalAlign=middle;whiteSpace=wrap;rounded=0;" vertex="1" parent="1">
          <mxGeometry x="670" y="710" width="40" height="20" as="geometry" />
        </mxCell>
        <mxCell id="aU0X5GYW9RGECIyZWCJw-28" value="PC14" style="text;html=1;strokeColor=none;fillColor=none;align=center;verticalAlign=middle;whiteSpace=wrap;rounded=0;" vertex="1" parent="1">
          <mxGeometry x="710" y="710" width="40" height="20" as="geometry" />
        </mxCell>
        <mxCell id="aU0X5GYW9RGECIyZWCJw-29" value="PC15" style="text;html=1;strokeColor=none;fillColor=none;align=center;verticalAlign=middle;whiteSpace=wrap;rounded=0;" vertex="1" parent="1">
          <mxGeometry x="750" y="710" width="40" height="20" as="geometry" />
        </mxCell>
        <mxCell id="aU0X5GYW9RGECIyZWCJw-30" value="PC16" style="text;html=1;strokeColor=none;fillColor=none;align=center;verticalAlign=middle;whiteSpace=wrap;rounded=0;" vertex="1" parent="1">
          <mxGeometry x="650" y="790" width="40" height="20" as="geometry" />
        </mxCell>
        <mxCell id="aU0X5GYW9RGECIyZWCJw-31" value="PC17" style="text;html=1;strokeColor=none;fillColor=none;align=center;verticalAlign=middle;whiteSpace=wrap;rounded=0;" vertex="1" parent="1">
          <mxGeometry x="695" y="790" width="40" height="20" as="geometry" />
        </mxCell>
        <mxCell id="aU0X5GYW9RGECIyZWCJw-32" value="PC18" style="text;html=1;strokeColor=none;fillColor=none;align=center;verticalAlign=middle;whiteSpace=wrap;rounded=0;" vertex="1" parent="1">
          <mxGeometry x="735" y="790" width="40" height="20" as="geometry" />
        </mxCell>
        <mxCell id="aU0X5GYW9RGECIyZWCJw-33" style="edgeStyle=orthogonalEdgeStyle;rounded=0;orthogonalLoop=1;jettySize=auto;html=1;exitX=0.5;exitY=1;exitDx=0;exitDy=0;" edge="1" parent="1" source="aU0X5GYW9RGECIyZWCJw-27" target="aU0X5GYW9RGECIyZWCJw-27">
          <mxGeometry relative="1" as="geometry" />
        </mxCell>
        <mxCell id="aU0X5GYW9RGECIyZWCJw-34" value="" style="rounded=1;whiteSpace=wrap;html=1;" vertex="1" parent="1">
          <mxGeometry x="650" y="470" width="130" height="160" as="geometry" />
        </mxCell>
        <mxCell id="aU0X5GYW9RGECIyZWCJw-35" value="&lt;span style=&quot;font-size: 14px&quot;&gt;Ufficio grafici&lt;/span&gt;" style="text;html=1;strokeColor=none;fillColor=none;align=center;verticalAlign=middle;whiteSpace=wrap;rounded=0;" vertex="1" parent="1">
          <mxGeometry x="640" y="440" width="150" height="20" as="geometry" />
        </mxCell>
        <mxCell id="aU0X5GYW9RGECIyZWCJw-36" value="PC7" style="text;html=1;strokeColor=none;fillColor=none;align=center;verticalAlign=middle;whiteSpace=wrap;rounded=0;" vertex="1" parent="1">
          <mxGeometry x="655" y="490" width="40" height="20" as="geometry" />
        </mxCell>
        <mxCell id="aU0X5GYW9RGECIyZWCJw-37" value="PC8" style="text;html=1;strokeColor=none;fillColor=none;align=center;verticalAlign=middle;whiteSpace=wrap;rounded=0;" vertex="1" parent="1">
          <mxGeometry x="695" y="490" width="40" height="20" as="geometry" />
        </mxCell>
        <mxCell id="aU0X5GYW9RGECIyZWCJw-38" value="PC9" style="text;html=1;strokeColor=none;fillColor=none;align=center;verticalAlign=middle;whiteSpace=wrap;rounded=0;" vertex="1" parent="1">
          <mxGeometry x="735" y="490" width="40" height="20" as="geometry" />
        </mxCell>
        <mxCell id="aU0X5GYW9RGECIyZWCJw-40" value="PC11" style="text;html=1;strokeColor=none;fillColor=none;align=center;verticalAlign=middle;whiteSpace=wrap;rounded=0;" vertex="1" parent="1">
          <mxGeometry x="735" y="570" width="40" height="20" as="geometry" />
        </mxCell>
        <mxCell id="aU0X5GYW9RGECIyZWCJw-41" value="PC10" style="text;html=1;strokeColor=none;fillColor=none;align=center;verticalAlign=middle;whiteSpace=wrap;rounded=0;" vertex="1" parent="1">
          <mxGeometry x="655" y="570" width="40" height="20" as="geometry" />
        </mxCell>
        <mxCell id="aU0X5GYW9RGECIyZWCJw-43" style="edgeStyle=orthogonalEdgeStyle;rounded=0;orthogonalLoop=1;jettySize=auto;html=1;exitX=0.5;exitY=1;exitDx=0;exitDy=0;" edge="1" parent="1" source="aU0X5GYW9RGECIyZWCJw-37" target="aU0X5GYW9RGECIyZWCJw-37">
          <mxGeometry relative="1" as="geometry" />
        </mxCell>
        <mxCell id="aU0X5GYW9RGECIyZWCJw-49" value="STMP1" style="text;html=1;strokeColor=none;fillColor=none;align=center;verticalAlign=middle;whiteSpace=wrap;rounded=0;" vertex="1" parent="1">
          <mxGeometry x="150" y="580" width="40" height="20" as="geometry" />
        </mxCell>
        <mxCell id="aU0X5GYW9RGECIyZWCJw-50" value="" style="endArrow=classic;html=1;exitX=0.5;exitY=1;exitDx=0;exitDy=0;" edge="1" parent="1" source="aU0X5GYW9RGECIyZWCJw-31">
          <mxGeometry width="50" height="50" relative="1" as="geometry">
            <mxPoint x="620" y="880" as="sourcePoint" />
            <mxPoint x="620" y="870" as="targetPoint" />
          </mxGeometry>
        </mxCell>
        <mxCell id="aU0X5GYW9RGECIyZWCJw-51" value="" style="endArrow=classic;html=1;exitX=0.5;exitY=1;exitDx=0;exitDy=0;" edge="1" parent="1" source="aU0X5GYW9RGECIyZWCJw-32">
          <mxGeometry width="50" height="50" relative="1" as="geometry">
            <mxPoint x="670" y="880" as="sourcePoint" />
            <mxPoint x="620" y="870" as="targetPoint" />
          </mxGeometry>
        </mxCell>
        <mxCell id="aU0X5GYW9RGECIyZWCJw-52" value="Postazioni libere" style="text;html=1;strokeColor=none;fillColor=none;align=center;verticalAlign=middle;whiteSpace=wrap;rounded=0;" vertex="1" parent="1">
          <mxGeometry x="570" y="860" width="40" height="20" as="geometry" />
        </mxCell>
        <mxCell id="aU0X5GYW9RGECIyZWCJw-53" value="" style="endArrow=classic;html=1;exitX=0.5;exitY=1;exitDx=0;exitDy=0;" edge="1" parent="1" source="aU0X5GYW9RGECIyZWCJw-49">
          <mxGeometry width="50" height="50" relative="1" as="geometry">
            <mxPoint x="210" y="600" as="sourcePoint" />
            <mxPoint x="260" y="620" as="targetPoint" />
          </mxGeometry>
        </mxCell>
        <mxCell id="aU0X5GYW9RGECIyZWCJw-54" value="Stampante" style="text;html=1;strokeColor=none;fillColor=none;align=center;verticalAlign=middle;whiteSpace=wrap;rounded=0;" vertex="1" parent="1">
          <mxGeometry x="280" y="610" width="40" height="20" as="geometry" />
        </mxCell>
        <mxCell id="aU0X5GYW9RGECIyZWCJw-59" value="&lt;font style=&quot;font-size: 18px&quot;&gt;Internet&lt;/font&gt;" style="ellipse;shape=cloud;whiteSpace=wrap;html=1;" vertex="1" parent="1">
          <mxGeometry x="340" y="100" width="186" height="110" as="geometry" />
        </mxCell>
      </root>
    </mxGraphModel>
  </diagram>
</mxfile>
